<?xml version="1.0" encoding="UTF-8"?>
<!DOCTYPE svg PUBLIC "-//W3C//DTD SVG 1.1//EN" "http://www.w3.org/Graphics/SVG/1.1/DTD/svg11.dtd">
<!-- Creator: CorelDRAW X8 -->
<svg xmlns="http://www.w3.org/2000/svg" xml:space="preserve" width="59.9702mm" height="55.8218mm" version="1.1" style="shape-rendering:geometricPrecision; text-rendering:geometricPrecision; image-rendering:optimizeQuality; fill-rule:evenodd; clip-rule:evenodd"
viewBox="0 0 1537 1430"
 xmlns:xlink="http://www.w3.org/1999/xlink">
 <defs>
  <style type="text/css">
   <![CDATA[
    .fil2 {fill:#173538}
    .fil3 {fill:#2D6469}
    .fil0 {fill:#3C8A91}
    .fil1 {fill:#DEB492}
   ]]>
  </style>
 </defs>
 <g id="Layer_x0020_1">
  <metadata id="CorelCorpID_0Corel-Layer"/>
  <g id="_1685392103888">
   <path class="fil0" d="M423 327c-202,344 -113,689 283,1026 53,46 86,112 -33,55 -301,-144 -557,-437 -648,-748 19,-340 302,-347 398,-333z"/>
   <path class="fil1" d="M1240 671c16,266 -105,463 -243,688 -23,36 -38,80 24,24 173,-152 314,-237 398,-532 2,-128 -57,-205 -109,-235 -47,-27 -71,40 -70,55z"/>
   <path class="fil2" d="M889 688c77,-38 138,-159 162,-228 71,-205 263,-166 347,24 3,6 133,218 138,46 22,-700 -780,-754 -964,126 115,-89 188,-41 317,32z"/>
   <path class="fil3" d="M482 602c-240,-313 -504,-182 -413,181 -332,-833 628,-759 820,-95 -153,33 -304,49 -407,-86z"/>
  </g>
 </g>
</svg>
