<?xml version="1.0" encoding="UTF-8"?>
<!DOCTYPE svg PUBLIC "-//W3C//DTD SVG 1.1//EN" "http://www.w3.org/Graphics/SVG/1.1/DTD/svg11.dtd">
<!-- Creator: CorelDRAW X8 -->
<svg xmlns="http://www.w3.org/2000/svg" xml:space="preserve" width="258.763mm" height="75.26mm" version="1.1" style="shape-rendering:geometricPrecision; text-rendering:geometricPrecision; image-rendering:optimizeQuality; fill-rule:evenodd; clip-rule:evenodd"
viewBox="0 0 26196 7619"
 xmlns:xlink="http://www.w3.org/1999/xlink">
 <defs>
  <style type="text/css">
   <![CDATA[
    .fil0 {fill:none}
    .fil5 {fill:#035B7D}
    .fil4 {fill:#143354}
    .fil2 {fill:#4491B0}
    .fil3 {fill:#78BFDB}
    .fil1 {fill:black;fill-rule:nonzero}
   ]]>
  </style>
 </defs>
 <g id="Layer_x0020_1">
  <metadata id="CorelCorpID_0Corel-Layer"/>
  <rect class="fil0" x="661" y="39" width="7232" height="7232"/>
  <path class="fil1" d="M10804 4059l-2329 0c0,413 77,749 232,1008 190,318 481,476 871,476 241,0 447,-68 620,-204 127,-100 270,-268 429,-504l109 41c-109,327 -282,595 -518,804 -263,227 -558,340 -885,340 -440,0 -801,-161 -1083,-483 -267,-309 -401,-688 -401,-1137 0,-445 135,-820 405,-1124 270,-304 625,-456 1065,-456 391,0 721,110 991,330 270,220 435,523 494,909zm9394 -1691c-127,-337 -506,-505 -506,-674 0,-168 123,-538 496,-226 285,-319 515,58 515,226 0,169 -379,337 -505,674zm-11723 1473l1607 0c-145,-549 -418,-824 -817,-824 -445,0 -708,275 -790,824zm4780 -27l-102 0c-118,-558 -370,-837 -756,-837 -141,0 -259,38 -354,115 -109,82 -164,191 -164,327 0,213 139,406 416,579 254,145 510,290 769,436 277,195 415,431 415,708 0,263 -97,475 -293,636 -196,161 -428,242 -697,242 -91,0 -225,-20 -400,-61 -175,-41 -306,-62 -392,-62 -64,0 -115,28 -151,82l-89 0 0 -1062 109 0c69,304 156,524 260,660 142,196 350,293 623,293 164,0 297,-43 400,-129 103,-86 154,-209 154,-368 0,-195 -134,-374 -402,-538 -245,-149 -492,-297 -742,-442 -268,-205 -402,-452 -402,-742 0,-259 96,-466 286,-620 182,-141 404,-211 668,-211 104,0 313,45 626,136 50,-14 88,-38 116,-75l75 0 27 933zm1021 1564l0 -1712c0,-278 -84,-417 -252,-417 -54,0 -127,16 -218,48l0 -109c359,-118 695,-241 1008,-368l34 14 0 606c286,-414 561,-620 824,-620 245,0 368,122 368,368 0,81 -24,152 -72,211 -48,59 -110,88 -187,88 -73,0 -160,-40 -262,-119 -102,-79 -172,-119 -208,-119 -95,0 -196,68 -303,204 -107,136 -160,254 -160,354l0 1532c0,204 49,343 146,415 84,64 233,96 446,96l0 102 -1634 0 0 -102c190,-37 309,-73 358,-109 75,-60 112,-181 112,-363zm3711 -270l0 -981c-731,241 -1096,559 -1096,953 0,150 36,275 107,375 82,113 194,170 340,170 71,0 153,-18 243,-54 157,-64 259,-114 305,-150 67,-68 101,-173 101,-313zm1055 395l0 177c-177,227 -377,340 -599,340 -300,0 -449,-168 -449,-504 -350,336 -677,504 -981,504 -209,0 -381,-66 -517,-197 -136,-132 -205,-302 -205,-511 0,-341 208,-636 625,-885 121,-73 478,-227 1071,-463l0 -422c0,-373 -176,-559 -529,-559 -226,0 -364,53 -413,157 -23,50 -34,197 -34,443 0,77 -31,144 -92,200 -61,57 -129,85 -207,85 -81,0 -152,-29 -209,-88 -60,-59 -89,-129 -89,-211 0,-241 132,-431 395,-572 222,-118 463,-177 722,-177 408,0 696,132 864,395 127,200 191,504 191,912 0,127 -8,316 -24,565 -16,250 -24,429 -24,538 0,145 5,234 14,266 23,86 86,129 191,129 72,0 172,-41 299,-122zm422 449l0 -102c235,0 384,-39 448,-116 65,-77 97,-236 97,-477l0 -1579c0,-159 -18,-267 -55,-324 -36,-56 -102,-85 -197,-85 -54,0 -141,9 -259,28l0 -103c236,-86 588,-211 1056,-374l27 20 0 2417c0,236 25,389 74,457 62,90 204,136 423,136l0 102 -1614 0zm2322 -613l0 -1688c0,-291 -84,-436 -252,-436 -50,0 -111,9 -184,27l0 -116c336,-95 649,-197 940,-306l47 14 0 537c200,-186 350,-310 450,-374 177,-118 358,-177 545,-177 272,0 478,107 619,320 118,182 177,415 177,701l0 1559c0,159 30,274 89,344 59,71 168,106 326,106l0 102 -1416 0 0 -102c177,0 298,-55 361,-164 46,-77 68,-213 68,-408l0 -1423c0,-440 -175,-661 -524,-661 -182,0 -406,130 -674,389l0 1913c0,236 150,354 449,354l0 102 -1457 0 0 -102c178,0 300,-48 366,-143 46,-68 70,-191 70,-368z"/>
  <g id="_1789440747824">
   <rect class="fil0" x="422" width="7619" height="7619"/>
   <g>
    <path class="fil2" d="M2763 2161c-799,1358 -447,2720 1116,4054 211,180 341,443 -131,217 -1188,-568 -2219,-1709 -2548,-2957 78,-1346 1184,-1371 1563,-1314z"/>
    <path class="fil3" d="M5989 3519c64,1053 -124,1483 -673,2370 -384,623 1050,-501 1383,-1659 8,-505 -228,-811 -434,-930 -185,-107 -279,161 -276,219z"/>
    <path class="fil4" d="M4576 3599c300,-152 573,-641 667,-912 280,-811 1040,-658 1373,92 11,25 530,862 544,183 59,-2727 -2976,-2711 -3688,271 456,-351 592,75 1104,366z"/>
    <path class="fil5" d="M2802 2970c-1141,-872 -1772,-346 -1437,990 -1313,-3288 2479,-2996 3240,-372 -638,251 -1327,-254 -1803,-618z"/>
   </g>
  </g>
  <rect class="fil0" y="273" width="26196" height="7339"/>
 </g>
</svg>
