<?xml version="1.0" encoding="UTF-8"?>
<!DOCTYPE svg PUBLIC "-//W3C//DTD SVG 1.1//EN" "http://www.w3.org/Graphics/SVG/1.1/DTD/svg11.dtd">
<!-- Creator: CorelDRAW X8 -->
<svg xmlns="http://www.w3.org/2000/svg" xml:space="preserve" width="235.775mm" height="55.8218mm" version="1.1" style="shape-rendering:geometricPrecision; text-rendering:geometricPrecision; image-rendering:optimizeQuality; fill-rule:evenodd; clip-rule:evenodd"
viewBox="0 0 23751 5623"
 xmlns:xlink="http://www.w3.org/1999/xlink">
 <defs>
  <style type="text/css">
   <![CDATA[
    .fil2 {fill:#173538}
    .fil3 {fill:#2D6469}
    .fil0 {fill:#3C8A91}
    .fil1 {fill:#DEB492}
    .fil4 {fill:black;fill-rule:nonzero}
   ]]>
  </style>
 </defs>
 <g id="Layer_x0020_1">
  <metadata id="CorelCorpID_0Corel-Layer"/>
  <g id="_1685534322032">
   <path class="fil0" d="M1663 1287c-794,1351 -444,2706 1111,4033 210,180 339,441 -130,216 -1182,-565 -2190,-1719 -2547,-2940 78,-1339 1189,-1367 1566,-1309z"/>
   <path class="fil1" d="M4874 2638c64,1047 -410,1822 -956,2705 -88,142 -149,313 98,95 680,-597 1231,-933 1564,-2093 8,-502 -226,-807 -431,-925 -184,-106 -278,160 -275,218z"/>
   <path class="fil2" d="M3497 2706c299,-151 541,-627 634,-896 280,-807 1036,-655 1367,92 11,24 521,857 541,181 85,-2753 -3068,-2964 -3790,496 454,-348 739,-162 1248,127z"/>
   <path class="fil3" d="M1895 2369c-942,-1232 -1980,-717 -1622,708 -1307,-3272 2467,-2982 3224,-371 -603,130 -1199,190 -1602,-337z"/>
  </g>
  <path class="fil4" d="M10079 3282l-2317 0c0,411 77,745 230,1002 190,316 479,474 867,474 240,0 445,-67 617,-203 126,-99 269,-266 427,-501l108 41c-108,325 -280,591 -515,799 -262,226 -555,339 -881,339 -438,0 -797,-161 -1077,-481 -266,-307 -400,-685 -400,-1132 0,-442 135,-815 404,-1118 268,-302 622,-454 1060,-454 388,0 717,110 986,329 268,219 432,521 491,905zm9348 -1683c-126,-335 -503,-503 -503,-671 0,-168 122,-535 493,-225 284,-317 513,57 513,225 0,168 -377,336 -503,671zm-11665 1466l1599 0c-145,-547 -416,-820 -813,-820 -443,0 -705,273 -786,820zm4756 -27l-102 0c-117,-556 -368,-834 -752,-834 -140,0 -257,39 -352,115 -108,82 -163,190 -163,326 0,212 138,404 414,576 253,144 508,289 765,433 276,194 413,429 413,705 0,262 -97,473 -292,633 -194,161 -426,241 -693,241 -91,0 -224,-21 -398,-61 -175,-41 -305,-61 -390,-61 -64,0 -114,27 -151,81l-88 0 0 -1057 109 0c69,303 154,522 258,657 141,195 348,292 620,292 163,0 296,-43 398,-129 102,-86 153,-208 153,-366 0,-194 -133,-373 -399,-535 -244,-149 -491,-296 -739,-441 -266,-203 -400,-449 -400,-738 0,-257 95,-463 285,-617 181,-140 402,-210 664,-210 104,0 311,46 623,136 50,-14 88,-38 115,-75l75 0 27 929zm1016 1556l0 -1703c0,-277 -83,-416 -251,-416 -54,0 -126,16 -216,48l0 -109c357,-117 691,-239 1002,-366l34 14 0 603c285,-411 558,-617 820,-617 244,0 366,122 366,366 0,82 -24,152 -71,210 -48,59 -110,88 -187,88 -72,0 -159,-39 -260,-118 -102,-79 -171,-119 -207,-119 -95,0 -195,68 -302,204 -106,135 -159,252 -159,352l0 1524c0,203 49,341 146,414 84,63 231,94 444,94l0 102 -1626 0 0 -102c188,-36 307,-72 355,-108 75,-60 112,-180 112,-361zm3693 -269l0 -976c-728,240 -1091,556 -1091,949 0,149 36,273 107,372 81,113 193,170 338,170 71,0 152,-18 241,-54 157,-64 259,-113 304,-149 67,-68 101,-172 101,-312zm1050 393l0 176c-176,226 -375,339 -596,339 -299,0 -448,-167 -448,-502 -347,335 -673,502 -975,502 -208,0 -380,-66 -515,-197 -136,-131 -203,-300 -203,-508 0,-339 206,-632 621,-881 120,-72 476,-225 1066,-460l0 -420c0,-371 -175,-556 -527,-556 -224,0 -362,52 -411,156 -22,50 -34,196 -34,440 0,77 -30,144 -91,200 -61,57 -129,85 -205,85 -82,0 -152,-30 -209,-88 -59,-59 -88,-129 -88,-210 0,-240 131,-429 392,-569 222,-118 461,-177 719,-177 406,0 693,131 860,393 127,199 190,502 190,908 0,127 -8,314 -24,563 -16,248 -24,426 -24,535 0,144 5,232 14,264 23,86 86,129 190,129 72,0 171,-41 298,-122zm420 447l0 -102c234,0 381,-38 446,-115 64,-77 96,-235 96,-474l0 -1572c0,-158 -18,-265 -54,-322 -37,-56 -102,-84 -197,-84 -54,0 -140,9 -257,27l0 -102c235,-86 585,-210 1050,-373l27 21 0 2405c0,235 25,386 73,454 62,90 204,135 421,135l0 102 -1605 0zm2310 -610l0 -1680c0,-289 -83,-434 -251,-434 -49,0 -110,9 -183,28l0 -116c335,-95 646,-196 935,-305l48 14 0 535c199,-185 348,-309 447,-372 176,-118 357,-177 542,-177 271,0 477,107 617,319 117,181 176,413 176,698l0 1551c0,158 29,272 88,342 59,70 167,105 325,105l0 102 -1409 0 0 -102c176,0 296,-54 359,-162 45,-77 68,-213 68,-407l0 -1416c0,-438 -174,-657 -522,-657 -181,0 -404,129 -671,386l0 1904c0,235 149,352 447,352l0 102 -1450 0 0 -102c178,0 299,-47 364,-142 46,-68 70,-190 70,-366z"/>
 </g>
</svg>
